<svg
  xmlns="http://www.w3.org/2000/svg"
  viewBox="0 0 1000 1000"
  aria-labelledby="title"
  width="1em"
  height="1em"
  stroke="currentColor"
  fill="currentColor"
>
  <title id="title">Stack</title>
  <g>
    <path d="M944.1,653.1c-6.2,0-12.1,1.3-17.6,3.5v0l-0.2,0.1c-0.1,0-0.1,0-0.2,0.1L500,833.1L73.9,656.8c-0.1,0-0.1-0.1-0.2-0.1l-0.2-0.1l0,0c-5.4-2.3-11.3-3.5-17.6-3.5c-25.4,0-45.9,20.6-45.9,45.9c0,19.1,11.7,35.5,28.4,42.4v0L482,925.1c0.1,0,0.1,0.1,0.2,0.1l0.2,0.1l0,0c5.4,2.3,11.3,3.5,17.5,3.5s12.1-1.3,17.6-3.5l0,0l0.2-0.1c0.1,0,0.1-0.1,0.2-0.1l443.6-183.6v0c16.6-6.9,28.4-23.3,28.4-42.4C990,673.7,969.4,653.1,944.1,653.1z M38.4,343.4L38.4,343.4L482.1,527c0.1,0,0.1,0,0.2,0.1l0.2,0.1l0,0c5.4,2.3,11.3,3.5,17.5,3.5s12.1-1.3,17.6-3.5l0,0l0.2-0.1c0.1,0,0.1-0.1,0.2-0.1l443.6-183.6v0c16.6-6.9,28.4-23.3,28.4-42.4s-11.7-35.5-28.4-42.4v0L518,74.9c-0.1,0-0.1-0.1-0.2-0.1l-0.2-0.1l0,0c-5.4-2.3-11.3-3.5-17.6-3.5s-12.1,1.3-17.5,3.5l0,0l-0.2,0.1c-0.1,0-0.1,0.1-0.2,0.1L38.4,258.5v0C21.7,265.4,10,281.8,10,300.9S21.7,336.5,38.4,343.4z M944.1,454.1c-6.2,0-12.1,1.3-17.6,3.5v0l-0.2,0.1c-0.1,0-0.1,0.1-0.2,0.1L500,634L73.9,457.7c-0.1,0-0.1-0.1-0.2-0.1l-0.2-0.1l0,0c-5.4-2.2-11.3-3.5-17.6-3.5C30.6,454.1,10,474.6,10,500c0,19.2,11.7,35.5,28.4,42.4v0L482,726c0.1,0,0.1,0,0.2,0.1l0.2,0.1l0,0c5.4,2.3,11.3,3.5,17.5,3.5s12.1-1.3,17.6-3.5l0,0l0.2-0.1c0.1,0,0.1-0.1,0.2-0.1l443.6-183.6v0c16.6-6.9,28.4-23.3,28.4-42.4C990,474.6,969.4,454.1,944.1,454.1z"/>
  </g>
</svg>
