<svg
  xmlns="http://www.w3.org/2000/svg"
  viewBox="0 0 32 32"
  aria-labelledby="title"
  width="1em"
  height="1em"
  stroke="currentColor"
  fill="currentColor"
>
  <title id="title">Sync</title>
  <g stroke-width="0">
    <path d="M31,16v6c0,2.757-2.243,5-5,5H16c-2.757,0-5-2.243-5-5h4c0,0.552,0.449,1,1,1h10 c0.551,0,1-0.448,1-1v-6c0-0.552-0.449-1-1-1H16c-0.551,0-1,0.448-1,1h-4c0-2.757,2.243-5,5-5h10C28.757,11,31,13.243,31,16z M21,16 h-4c0,0.552-0.449,1-1,1H6c-0.551,0-1-0.448-1-1v-6c0-0.552,0.449-1,1-1h10c0.551,0,1,0.448,1,1h4c0-2.757-2.243-5-5-5H6 c-2.757,0-5,2.243-5,5v6c0,2.757,2.243,5,5,5h10C18.757,21,21,18.757,21,16z" />
  </g>
</svg>
