<svg
  xmlns="http://www.w3.org/2000/svg"
  viewBox="0 0 512 512"
  aria-labelledby="title"
  width="1em"
  height="1em"
  stroke="currentColor"
  fill="currentColor"
>
  <title id="title">Smooth</title>
  <g>
    <path d="M91.8,0L91.8,0C49.6,0,15.3,34.2,15.3,76.5S49.6,153,91.8,153c42.3,0,76.5-34.3,76.5-76.5C168.3,34.2,134,0,91.8,0z    M91.8,118.7L91.8,118.7c-23.3,0-42.2-18.9-42.2-42.2s18.9-42.2,42.2-42.2S134,53.2,134,76.5C134,99.8,115.1,118.7,91.8,118.7z"/>
    <path d="M292.1,29.7L292.1,29.7c-35.2,0-63.7,28.5-63.7,63.7s28.5,63.7,63.7,63.7s63.7-28.5,63.7-63.7   C355.9,58.3,327.3,29.8,292.1,29.7L292.1,29.7z M292.1,122.9L292.1,122.9c-16.3,0-29.5-13.2-29.5-29.5S275.9,64,292.1,64   c16.3,0,29.5,13.2,29.5,29.5C321.6,109.7,308.4,122.9,292.1,122.9L292.1,122.9z"/>
    <path d="M496.7,104.1c0,17.5-14.2,31.8-31.8,31.8c-17.5,0-31.8-14.2-31.8-31.8s14.2-31.8,31.8-31.8   C482.5,72.3,496.7,86.5,496.7,104.1z"/>
    <path d="M91.8,179.5L91.8,179.5c-42.2,0-76.5,34.3-76.5,76.5s34.3,76.5,76.5,76.5c42.3,0,76.5-34.3,76.5-76.5   C168.3,213.7,134,179.5,91.8,179.5z M91.8,298.2L91.8,298.2c-23.3,0-42.2-18.9-42.2-42.2s18.9-42.2,42.2-42.2S134,232.7,134,256   C134,279.3,115.1,298.2,91.8,298.2z"/>
    <path d="M292.1,192.3L292.1,192.3c-35.2,0-63.7,28.5-63.7,63.7s28.5,63.7,63.7,63.7s63.7-28.5,63.7-63.7   C355.9,220.8,327.3,192.3,292.1,192.3L292.1,192.3z M292.1,285.4L292.1,285.4c-16.3,0-29.5-13.2-29.5-29.5s13.2-29.5,29.5-29.5   c16.3,0,29.5,13.2,29.5,29.5C321.6,272.2,308.4,285.4,292.1,285.4L292.1,285.4z"/>
    <path d="M496.7,256c0,17.5-14.2,31.8-31.8,31.8c-17.5,0-31.8-14.2-31.8-31.8s14.2-31.8,31.8-31.8   C482.5,224.2,496.7,238.4,496.7,256z"/>
    <path d="M91.8,359L91.8,359c-42.2,0-76.5,34.3-76.5,76.5S49.6,512,91.8,512c42.3,0,76.5-34.2,76.5-76.5   C168.3,393.3,134,359.1,91.8,359L91.8,359z M91.8,477.7L91.8,477.7c-23.3,0-42.2-18.9-42.2-42.2s18.9-42.2,42.2-42.2   c23.3,0,42.2,18.9,42.2,42.2C134,458.8,115.1,477.6,91.8,477.7L91.8,477.7z"/>
    <path d="M292.1,354.8L292.1,354.8c-35.2,0-63.7,28.5-63.7,63.7s28.5,63.7,63.7,63.7s63.7-28.5,63.7-63.7   C355.9,383.3,327.3,354.8,292.1,354.8L292.1,354.8z M292.1,447.9L292.1,447.9c-16.3,0-29.5-13.2-29.5-29.5   c0-16.3,13.2-29.5,29.5-29.5c16.3,0,29.5,13.2,29.5,29.5C321.6,434.7,308.4,447.9,292.1,447.9L292.1,447.9z"/>
    <path d="M496.7,407.9c0,17.5-14.2,31.8-31.8,31.8c-17.5,0-31.8-14.2-31.8-31.8c0-17.5,14.2-31.8,31.8-31.8   C482.5,376.1,496.7,390.4,496.7,407.9z"/>
  </g>
</svg>
