<svg
  xmlns="http://www.w3.org/2000/svg"
  viewBox="0 0 512 512"
  aria-labelledby="title"
  width="1em"
  height="1em"
  fill="currentColor"
  stroke="currentColor"
>
<!--  <title id="title"></title>-->
  <g transform="matrix(1,0,0,-1,113.89831,1293.0169)">
    <path d="M259.4,1026.4c0-2.7-1.1-5.3-3.3-8L149.8,912c-2-2-4.6-3-7.7-3
		c-3.1,0-5.7,1-7.7,3L27.8,1018.7c-2,2-3,4.6-3,7.7c0,2.9,1.1,5.4,3.2,7.5s4.6,3.2,7.5,3.2h64v117.3c0,2.9,1.1,5.4,3.2,7.5
		s4.6,3.2,7.5,3.2h64c2.9,0,5.4-1.1,7.5-3.2c2.1-2.1,3.2-4.6,3.2-7.5V1037h64c3.1,0,5.7-1,7.7-3S259.4,1029.5,259.4,1026.4z
		 M312.8,1037c0,23.1-4.5,45.2-13.5,66.2s-21.2,39.2-36.5,54.5c-15.3,15.3-33.5,27.5-54.5,36.5s-43.1,13.5-66.2,13.5
		s-45.2-4.5-66.2-13.5s-39.2-21.2-54.5-36.5c-15.3-15.3-27.5-33.5-36.5-54.5s-13.5-43.1-13.5-66.2s4.5-45.2,13.5-66.2
		s21.2-39.2,36.5-54.5c15.3-15.3,33.5-27.5,54.5-36.5s43.1-13.5,66.2-13.5s45.2,4.5,66.2,13.5s39.2,21.2,54.5,36.5
		c15.3,15.3,27.5,33.5,36.5,54.5S312.8,1013.9,312.8,1037z M398.1,1037c0-46.4-11.4-89.3-34.3-128.5c-22.9-39.2-53.9-70.3-93.2-93.2
		c-39.2-22.9-82.1-34.3-128.5-34.3s-89.3,11.4-128.5,34.3c-39.2,22.9-70.3,53.9-93.2,93.2s-34.3,82.1-34.3,128.5
		s11.4,89.3,34.3,128.5s53.9,70.3,93.2,93.2c39.2,22.9,82.1,34.3,128.5,34.3s89.3-11.4,128.5-34.3c39.2-22.9,70.3-53.9,93.2-93.2
		C386.7,1126.3,398.1,1083.5,398.1,1037z"/>
  </g>
</svg>
